<svg width="24" height="24" viewBox="0 0 24 24" fill="none" xmlns="http://www.w3.org/2000/svg">
<path d="M17.4697 5.46967C17.7626 5.17678 18.2374 5.17678 18.5303 5.46967C18.8232 5.76256 18.8232 6.23732 18.5303 6.53022L7.53028 17.5302C7.23738 17.8231 6.76262 17.8231 6.46973 17.5302L1.46973 12.5302C1.17684 12.2373 1.17684 11.7626 1.46973 11.4697C1.76262 11.1768 2.23738 11.1768 2.53028 11.4697L7 15.9394L17.4697 5.46967Z" fill="#525252"/>
<path d="M21.4697 9.46967C21.7626 9.17678 22.2374 9.17678 22.5303 9.46967C22.8232 9.76256 22.8232 10.2373 22.5303 10.5302L15.0303 18.0302C14.7374 18.3231 14.2626 18.3231 13.9697 18.0302L12.4697 16.5302C12.1768 16.2373 12.1768 15.7626 12.4697 15.4697C12.7626 15.1768 13.2374 15.1768 13.5303 15.4697L14.5 16.4394L21.4697 9.46967Z" fill="#525252"/>
</svg>
