<svg width="24" height="24" viewBox="0 0 24 24" fill="none" xmlns="http://www.w3.org/2000/svg">
<path d="M12.0005 4.25061C14.2777 4.2507 16.5034 4.92735 18.396 6.19397C20.2886 7.46069 21.763 9.26046 22.6313 11.3658C22.6347 11.3741 22.638 11.3829 22.6411 11.3912C22.7869 11.7841 22.7869 12.2162 22.6411 12.609C22.638 12.6174 22.6347 12.6261 22.6313 12.6344C21.763 14.7397 20.2885 16.5396 18.396 17.8063C16.5035 19.0728 14.2777 19.7495 12.0005 19.7496C9.72305 19.7496 7.49662 19.0729 5.60397 17.8063C3.7114 16.5396 2.23697 14.7397 1.36862 12.6344C1.36522 12.6261 1.36196 12.6174 1.35886 12.609C1.21304 12.2162 1.21309 11.7841 1.35886 11.3912L1.36862 11.3658C2.23696 9.26046 3.71133 7.46069 5.60397 6.19397C7.49665 4.92725 9.72301 4.25061 12.0005 4.25061ZM12.0005 5.75061C10.0201 5.75061 8.08376 6.33857 6.43796 7.44006C4.79757 8.53795 3.51822 10.0965 2.76218 11.9196C2.74447 11.9718 2.74533 12.0285 2.76315 12.0807C3.51922 13.9035 4.79774 15.4624 6.43796 16.5602C8.08373 17.6616 10.0201 18.2496 12.0005 18.2496C13.9806 18.2495 15.9163 17.6615 17.562 16.5602C19.2021 15.4625 20.4797 13.9033 21.2358 12.0807C21.2538 12.0283 21.2546 11.972 21.2368 11.9196C20.4807 10.0967 19.2023 8.53788 17.562 7.44006C15.9163 6.33867 13.9807 5.7507 12.0005 5.75061Z" fill="#525252"/>
<path d="M14.25 12C14.25 10.7574 13.2426 9.74999 12 9.74999C10.7573 9.74999 9.74999 10.7574 9.74999 12C9.74999 13.2426 10.7573 14.25 12 14.25C13.2426 14.25 14.25 13.2426 14.25 12ZM15.75 12C15.75 14.0711 14.0711 15.75 12 15.75C9.92892 15.75 8.24999 14.0711 8.24999 12C8.24999 9.92893 9.92892 8.24999 12 8.24999C14.0711 8.24999 15.75 9.92893 15.75 12Z" fill="#525252"/>
</svg>
