<svg width="24" height="24" viewBox="0 0 24 24" fill="none" xmlns="http://www.w3.org/2000/svg">
<path d="M3.25 20V4C3.25 3.27065 3.53994 2.57139 4.05566 2.05566C4.57139 1.53994 5.27065 1.25 6 1.25H15C15.1989 1.25 15.3896 1.32907 15.5303 1.46973L20.5303 6.46973C20.6709 6.61038 20.75 6.80109 20.75 7V20C20.75 20.7293 20.4601 21.4286 19.9443 21.9443C19.4286 22.4601 18.7293 22.75 18 22.75H6C5.27065 22.75 4.57139 22.4601 4.05566 21.9443C3.53994 21.4286 3.25 20.7293 3.25 20ZM4.75 20C4.75 20.3315 4.88179 20.6494 5.11621 20.8838C5.35063 21.1182 5.66848 21.25 6 21.25H18C18.3315 21.25 18.6494 21.1182 18.8838 20.8838C19.1182 20.6494 19.25 20.3315 19.25 20V7.31055L14.6895 2.75H6C5.66848 2.75 5.35063 2.88179 5.11621 3.11621C4.88179 3.35063 4.75 3.66848 4.75 4V20Z" fill="#525252"/>
<path d="M13.25 6V2C13.25 1.58579 13.5858 1.25 14 1.25C14.4142 1.25 14.75 1.58579 14.75 2V6C14.75 6.33152 14.8818 6.64937 15.1162 6.88379C15.3506 7.11821 15.6685 7.25 16 7.25H20C20.4142 7.25 20.75 7.58579 20.75 8C20.75 8.41421 20.4142 8.75 20 8.75H16C15.2707 8.75 14.5714 8.46006 14.0557 7.94434C13.5399 7.42861 13.25 6.72935 13.25 6Z" fill="#525252"/>
<path d="M14.4697 12.4697C14.7626 12.1768 15.2374 12.1768 15.5303 12.4697C15.8232 12.7626 15.8232 13.2374 15.5303 13.5303L11.5303 17.5303C11.2374 17.8232 10.7626 17.8232 10.4697 17.5303L8.46973 15.5303C8.17683 15.2374 8.17683 14.7626 8.46973 14.4697C8.76262 14.1768 9.23738 14.1768 9.53027 14.4697L11 15.9395L14.4697 12.4697Z" fill="#525252"/>
</svg>
