<svg width="24" height="24" viewBox="0 0 24 24" fill="none" xmlns="http://www.w3.org/2000/svg">
<path d="M1.25 20.9996C1.25 19.3158 1.73609 17.668 2.64941 16.2535C3.56293 14.8387 4.8655 13.7168 6.40039 13.024C7.93515 12.3313 9.63765 12.0966 11.3027 12.3472C12.9677 12.5979 14.5253 13.3233 15.7881 14.4371C16.0986 14.711 16.1282 15.185 15.8545 15.4956C15.5805 15.8063 15.1065 15.8361 14.7959 15.5621C13.7495 14.6391 12.4588 14.0383 11.0791 13.8306C9.6995 13.6229 8.28921 13.8173 7.01758 14.3912C5.74581 14.9652 4.66609 15.8947 3.90918 17.0669C3.15245 18.239 2.75 19.6045 2.75 20.9996C2.75002 21.4138 2.41421 21.7495 2 21.7496C1.58581 21.7496 1.25002 21.4138 1.25 20.9996Z" fill="#525252"/>
<path d="M14.25 8C14.25 5.65279 12.3472 3.75 10 3.75C7.65279 3.75 5.75 5.65279 5.75 8C5.75 10.3472 7.65279 12.25 10 12.25C12.3472 12.25 14.25 10.3472 14.25 8ZM15.75 8C15.75 11.1756 13.1756 13.75 10 13.75C6.82436 13.75 4.25 11.1756 4.25 8C4.25 4.82436 6.82436 2.25 10 2.25C13.1756 2.25 15.75 4.82436 15.75 8Z" fill="#525252"/>
<path d="M21.4697 16.4697C21.7626 16.1768 22.2374 16.1768 22.5303 16.4697C22.8232 16.7626 22.8232 17.2374 22.5303 17.5303L18.5303 21.5303C18.2374 21.8232 17.7626 21.8232 17.4697 21.5303L15.4697 19.5303C15.1768 19.2374 15.1768 18.7626 15.4697 18.4697C15.7626 18.1768 16.2374 18.1768 16.5303 18.4697L18 19.9395L21.4697 16.4697Z" fill="#525252"/>
</svg>
